inDegrees=no
num_controls=7
num_derivatives=13
num_iterations=102
num_multipliers=7
num_parameters=0
num_slacks=7
num_states=26
objective=6.166480
objective_accelerations=0.413983
objective_balance=0.073949
objective_effort=0.437596
objective_height=5.217853
objective_ligament=0.023100
solver_duration=880.026509
status=Solve_Succeeded
success=true
DataType=double
version=3
OpenSimVersion=4.4-2022-07-23-0e9fedc
endheader
time	/jointset/ground_pelvis/pelvis_tilt/value	/jointset/ground_pelvis/pelvis_tx/value	/jointset/ground_pelvis/pelvis_ty/value	/jointset/hip_r/hip_flexion_r/value	/jointset/hip_r/hip_adduction_r/value	/jointset/hip_r/hip_rotation_r/value	/jointset/back/lumbar_extension/value	/jointset/patellofemoral_r/patellar_flexion_r/value	/jointset/knee_r/knee_flexion_r/value	/jointset/knee_r/knee_adduction_r/value	/jointset/knee_r/knee_rotation_r/value	/jointset/ankle_r/ankle_angle_r/value	/jointset/subtalar_r/subtalar_angle_r/value	/jointset/ground_pelvis/pelvis_tilt/speed	/jointset/ground_pelvis/pelvis_tx/speed	/jointset/ground_pelvis/pelvis_ty/speed	/jointset/hip_r/hip_flexion_r/speed	/jointset/hip_r/hip_adduction_r/speed	/jointset/hip_r/hip_rotation_r/speed	/jointset/back/lumbar_extension/speed	/jointset/patellofemoral_r/patellar_flexion_r/speed	/jointset/knee_r/knee_flexion_r/speed	/jointset/knee_r/knee_adduction_r/speed	/jointset/knee_r/knee_rotation_r/speed	/jointset/ankle_r/ankle_angle_r/speed	/jointset/subtalar_r/subtalar_angle_r/speed	/forceset/tau_hip_flexion_r	/forceset/tau_hip_adduction_r	/forceset/tau_hip_rotation_r	/forceset/tau_knee_flexion_r	/forceset/tau_ankle_angle_r	/forceset/tau_subtalar_angle_r	/forceset/tau_lumbar_extension	lambda_cid13_p0	lambda_cid14_p0	lambda_cid14_p1	lambda_cid14_p2	lambda_cid14_p3	lambda_cid14_p4	lambda_cid14_p5	/jointset/ground_pelvis/pelvis_tilt/accel	/jointset/ground_pelvis/pelvis_tx/accel	/jointset/ground_pelvis/pelvis_ty/accel	/jointset/hip_r/hip_flexion_r/accel	/jointset/hip_r/hip_adduction_r/accel	/jointset/hip_r/hip_rotation_r/accel	/jointset/back/lumbar_extension/accel	/jointset/patellofemoral_r/patellar_flexion_r/accel	/jointset/knee_r/knee_flexion_r/accel	/jointset/knee_r/knee_adduction_r/accel	/jointset/knee_r/knee_rotation_r/accel	/jointset/ankle_r/ankle_angle_r/accel	/jointset/subtalar_r/subtalar_angle_r/accel	gamma_cid13_p0	gamma_cid14_p0	gamma_cid14_p1	gamma_cid14_p2	gamma_cid14_p3	gamma_cid14_p4	gamma_cid14_p5
0.5	-0.1094061516185761	0.05731785299088554	0.8621373282238933	0.7005969086298259	-0.2338377931325112	-0.1271792615778978	-0.3132029738424111	0.6926763012503052	0.6926763012503542	0.05084131559812724	0.1744840924242772	0.2713916619404304	0.05379302630910998	-0.2982359996069885	-0.0913209143903768	-0.3307879173729643	1.445965218586071	-0.005763319718883764	0.2668064950435985	-0.6038655593748504	1.666670849085348	1.66667084908523	-0.2721399819460733	6.842300147864508e-05	0.6091313071617243	0.1642465110313744	-0.0826034991278133	-0.003399958750955761	0.008886147999239495	-0.3245029467323142	0.03754476231425106	-0.01532809094591512	0.1387121874846075	-31.75167254005135	-30.27462014756921	-8.54431565960425	-2.076918871625256	7.869677921781308	-669.4330796364925	50.39323866914157	0.05954734049978667	0.1951799277660093	-0.3510278647325654	-0.7657191069930525	-0.008771898196348145	-0.6074358607753317	1.215108916717748	-1.175385848716598	-1.175385848716612	0.2929638643408498	-0.0001935772375023792	-0.5906751817318827	-0.03590192363629993	-1.319596949253806e-07	-1.584663051016762e-07	8.383939370324725e-07	-1.244994487953521e-06	9.440981819238367e-09	-2.248974879256469e-07	1.031317168943583e-06
0.51	-0.1123849813160867	0.05641456929848963	0.8588126500828643	0.7150158342155277	-0.2338966390306231	-0.1245409495181511	-0.3191801687656706	0.7092816375213503	0.7092816375213794	0.04813670191245989	0.1744850683770645	0.2774523164734235	0.05543229897031311	-0.2974899199324056	-0.08932171078295034	-0.3340722732833496	1.437616016531765	-0.006004265296872485	0.2608480710546684	-0.5914885637209695	1.654156016226024	1.654156016225899	-0.2687702011541578	0.0001199364496335681	0.6029180084634261	0.1635837245688588	-0.08811394160871001	-0.001733203379515663	0.009398834791610198	-0.3271467772469654	0.03320771009865593	-0.01438001237791877	0.143727173089319	-30.7988091202965	-31.79326250692018	-8.512769341951369	-1.951388720622612	8.384591813437394	-672.6797234818467	50.36736941463643	0.08812863227671579	0.2044111985915635	-0.3058701042895231	-0.9001200900867204	-0.03165981145119195	-0.5914261711302773	1.261724122623639	-1.325564782783255	-1.325564782783971	0.3609155216270134	0.006583875728951236	-0.6489123187410346	-0.0851363313856988	-1.229547521433575e-07	-1.576727583289958e-07	7.172878602768147e-07	-1.2371274553777e-06	2.257813521504456e-08	-2.232909659503906e-07	9.497736927653621e-07
0.52	-0.1153551521466132	0.05553170176644071	0.855457382252713	0.7293451479135934	-0.2339578751693132	-0.1219624977988999	-0.3250310478858141	0.7257546189081714	0.7257546189081657	0.04546617210173406	0.1744863114782738	0.2834483869984559	0.05706420990212396	-0.2965042262042277	-0.08723768232097716	-0.3369058551974058	1.428042841059993	-0.006241367828929221	0.2548344269386271	-0.5786023987510511	1.640199872236981	1.640199872236851	-0.2653232069618179	0.0001218526932610751	0.5962145055706404	0.1627741651532846	-0.09362438408947871	-6.644800796521648e-05	0.009911521583528022	-0.3297906077615878	0.02887065788309108	-0.01343193380974478	0.1487421586941201	-29.83909585036264	-33.31593317025276	-8.477205028262789	-1.831895004185303	8.890560319059727	-675.9949206119848	50.41014519478652	0.1074701512184208	0.2121448986756621	-0.2608730654667462	-1.0105137904864	-0.00800328901007679	-0.6184798861973548	1.316942779924902	-1.463648074660166	-1.46364807466016	0.3084065444259996	-0.01011301814310921	-0.688716020628978	-0.06525651424800195	-1.132024804162592e-07	-1.521166175337649e-07	5.906458891786085e-07	-1.20582651742115e-06	3.15792343756278e-08	-2.068822891688484e-07	8.510472167172511e-07
0.53	-0.1183143343223497	0.05467007995042351	0.8520760647378225	0.7435727497614378	-0.2340214186759266	-0.1194442717483696	-0.3307505285346581	0.7420809599279002	0.7420809599279532	0.04283051270016811	0.1744872127223723	0.289375052037903	0.05868733787370289	-0.2952919952476529	-0.08507401647122055	-0.339277579992624	1.417273346255769	-0.006469039193720018	0.248798207769177	-0.5652168963296696	1.624832879308441	1.624832879308371	-0.261791626873682	6.299355289883491e-05	0.5890402102584937	0.1618218276662667	-0.0990214916304597	0.001531482547806131	0.01044614605913848	-0.3326564204135911	0.02482732875672485	-0.01267716486518365	0.1536737120604993	-28.87355105011772	-34.76144049264506	-8.526137863011	-1.682876904142397	9.364539005827227	-679.4220971989276	50.3355186733882	0.1341193868648158	0.2203843521780027	-0.2133516710865683	-1.140810927408507	-0.03056002885830664	-0.598258024758454	1.360879175849617	-1.608521148350909	-1.608521148341752	0.3781095225347901	-0.003290373538006514	-0.7435400816237959	-0.1147203202190535	-1.029238547252534e-07	-1.384110014098945e-07	5.201693356382115e-07	-1.112590481168887e-06	2.930666854606078e-08	-1.819262971540553e-07	7.632747477130732e-07
0.54	-0.1212601902247421	0.05383047617771484	0.8486734240780733	0.7576865279408376	-0.2340873210898907	-0.1169868209080485	-0.336333849118768	0.7582465717692446	0.7582465717691265	0.0402306842559394	0.1744876217723643	0.2952276233652031	0.06030004287955475	-0.2938389715315509	-0.08283407365927054	-0.3411704841690628	1.405278107370838	-0.006713149304286973	0.2426793849022059	-0.5513703858040678	1.608054036523898	1.608054036523888	-0.2581570155244471	2.341395036082897e-05	0.5813957631416966	0.1606895720076272	-0.104418599171356	0.003129413103487459	0.01098077053185629	-0.3355222330655145	0.02078399963034768	-0.01192239592068054	0.1586052654269673	-27.90301929068463	-36.21236882714939	-8.572240311545654	-1.53862798436611	9.833160667286959	-682.9360603717588	50.3254898630335	0.15562870312348	0.2274002911146843	-0.16510894171086	-1.255662606627937	-0.01129103816557852	-0.6350006257013994	1.409144400768627	-1.746018045860769	-1.746018045860689	0.3290127966459705	-0.006257110578385853	-0.7827463815586009	-0.1012401485722341	-9.206287996779673e-08	-1.156889444968909e-07	5.118332440766685e-07	-9.508305063766872e-07	1.456111166356142e-08	-1.4751370105141e-07	6.876216056511192e-07
0.55	-0.1241903559554203	0.05301359059786923	0.8452542514057206	0.7716744652394691	-0.2341556741484643	-0.1145909034647363	-0.3417764752466806	0.7742375681513826	0.7742375681516254	0.03766757779956392	0.1744876817901791	0.3010014764501011	0.06190061296882338	-0.2921514942772404	-0.08053603127933731	-0.3425823660525321	1.392113823854928	-0.006966506553223359	0.2365370308744563	-0.5370925238332189	1.589924100379159	1.589924100379138	-0.2544062223672045	-2.733606492428451e-05	0.573297010395328	0.1593817137346804	-0.1097743347556636	0.004589286648699817	0.01155272792902183	-0.3382742445238345	0.01657148894964444	-0.01119837085175705	0.1634645625728555	-26.9286481661303	-37.72011139486422	-8.642335222415136	-1.38976237874064	10.39921275263917	-686.4085866847291	50.29657064503654	0.181700013276972	0.2320591705581032	-0.1170009230059256	-1.376152186064936	-0.03381867196593992	-0.5990507162671528	1.446454486346454	-1.879635102525343	-1.879635102526879	0.406854569437716	-0.007020282208552678	-0.8351269316173827	-0.1519904502019633	-7.078437628469382e-08	-5.411249852194086e-08	6.638914544116169e-07	-4.906131963589343e-07	-4.273128267832726e-08	-7.427026345032241e-08	6.111482167753276e-07
0.5600000000000001	-0.1271023683582052	0.05221989603364831	0.8418234052922664	0.7855248915105794	-0.2342268529001584	-0.1122554491467818	-0.347074453276664	0.7900406344315367	0.7900406344318535	0.03514372767372213	0.1744867270403739	0.3066920045654454	0.06348681811865794	-0.2902083059552484	-0.07819587053432964	-0.3435051723893191	1.377775901859322	-0.007278287950548491	0.230586759848586	-0.5224407662182022	1.570468016084623	1.570468016084591	-0.2503057494430324	-0.0001795394883638105	0.5647307692313059	0.1578165841198837	-0.1151300703398627	0.006049160193869388	0.01212468532266518	-0.3410262559821008	0.01235897826891496	-0.01047434578291915	0.1683238597188552	-25.95184605594258	-39.23464645735349	-8.710150393590272	-1.24522290637493	10.96604542396773	-689.9865972131522	50.32297991702423	0.2067709166593894	0.2358239641299096	-0.06729383237442658	-1.490390302567241	-0.02297586784377201	-0.596584025325528	1.483923529601829	-2.011247675819902	-2.011247675819826	0.3989487500320629	-0.02654779220938007	-0.8762440650888162	-0.1526944169421484	-3.700483789081581e-08	5.40892143273436e-08	1.008422827022349e-06	3.277529159294707e-07	-1.510798819714815e-07	4.557018394889436e-08	5.336905317229311e-07
0.5700000000000001	-0.129993882983926	0.05144982623120066	0.8383857834338568	0.799226423380951	-0.234300829514115	-0.1099815614629836	-0.3522239814729548	0.8056427111563382	0.8056427111563014	0.03265948928296687	0.1744852868969723	0.3122948579119884	0.0650570733106081	-0.2880588333915957	-0.07580810986738344	-0.3439348799285373	1.362337644487922	-0.007527982076830779	0.2242203101575413	-0.5074110170403663	1.549732223479142	1.549732223479151	-0.2464852151276477	-0.000120646369676726	0.5557722132558306	0.1561908008428661	-0.1200734170993701	0.007219621098179115	0.01264504081883938	-0.3443711759109255	0.009139587324374239	-0.00983651960578721	0.1728793205403149	-24.97427887765233	-40.43163954930846	-8.762314472450482	-1.100309891744521	11.27438854400634	-693.5577291856052	50.42433254874033	0.2244104652006743	0.241706658440593	-0.01813863839780609	-1.599455811187414	-0.02738969051326974	-0.6522295923429797	1.520579011116013	-2.13700728183743	-2.13700728183117	0.3823054368024899	0.02045996405400979	-0.9158486076090498	-0.1737860113656099	-1.277289267180534e-08	1.281281606004447e-07	1.236424309371024e-06	8.873324070051498e-07	-2.246306697133782e-07	1.270922861490541e-07	4.903009577584262e-07
